# xmcd CD database file
#
# Track frame offsets:
#	150
#	26355
#	49913
#	85558
#	99599
#	120491
#	145526
#	171394
#	191394
#	206388
#	230115
#
# Disc length: 3344 seconds
#
# Revision: 1
# Processed by: cddbd v1.5.2PL0 Copyright (c) Steve Scherf et al.
# Submitted via: CDex 1.51
#
DISCID=880d0e0b
DTITLE=Northcape - Captured From Static
DYEAR=2010
DGENRE=New Age
TTITLE0=Doesn't Feel Like A Long Way
TTITLE1=Approaching The Trig Point
TTITLE2=Grove Park
TTITLE3=Pastoral
TTITLE4=Shinkansen To Kyoto
TTITLE5=Clear Moment
TTITLE6=Indigo Line
TTITLE7=Moitessier
TTITLE8=Into Sunlight
TTITLE9=First Day In A New Town
TTITLE10=Static Theme
EXTD=YEAR: 2010
EXTT0=
EXTT1=
EXTT2=
EXTT3=
EXTT4=
EXTT5=
EXTT6=
EXTT7=
EXTT8=
EXTT9=
EXTT10=
PLAYORDER=
